<?xml version="1.0" encoding="UTF-8" standalone="no"?>
<svg
   xmlns:dc="http://purl.org/dc/elements/1.1/"
   xmlns:cc="http://creativecommons.org/ns#"
   xmlns:rdf="http://www.w3.org/1999/02/22-rdf-syntax-ns#"
   xmlns:svg="http://www.w3.org/2000/svg"
   xmlns="http://www.w3.org/2000/svg"
   xmlns:sodipodi="http://sodipodi.sourceforge.net/DTD/sodipodi-0.dtd"
   xmlns:inkscape="http://www.inkscape.org/namespaces/inkscape"
   enable-background="new"
   height="16"
   width="16"
   version="1.1"
   id="svg8"
   sodipodi:docname="libreoffice-main-symbolic.svg"
   inkscape:version="0.92.5 (2060ec1f9f, 2020-04-08)">
  <metadata
     id="metadata14">
    <rdf:RDF>
      <cc:Work
         rdf:about="">
        <dc:format>image/svg+xml</dc:format>
        <dc:type
           rdf:resource="http://purl.org/dc/dcmitype/StillImage" />
        <dc:title />
      </cc:Work>
    </rdf:RDF>
  </metadata>
  <defs
     id="defs12" />
  <sodipodi:namedview
     pagecolor="#ffffff"
     bordercolor="#666666"
     borderopacity="1"
     objecttolerance="10"
     gridtolerance="10"
     guidetolerance="10"
     inkscape:pageopacity="0"
     inkscape:pageshadow="2"
     inkscape:window-width="3840"
     inkscape:window-height="2061"
     id="namedview10"
     showgrid="false"
     inkscape:zoom="59"
     inkscape:cx="3.3305085"
     inkscape:cy="8"
     inkscape:window-x="0"
     inkscape:window-y="38"
     inkscape:window-maximized="1"
     inkscape:current-layer="svg8" />
  <g
     style="fill:#444444"
     transform="translate(-112,-180)"
     id="g6">
    <path
       inkscape:connector-curvature="0"
       d="m 123.28105,180.00525 c -0.27821,0.0752 -0.37465,0.49932 -0.15625,0.68727 l 3.1875,3.18646 c 0.21982,0.23021 0.69212,0.0371 0.6875,-0.28116 v -3.21769 c -0.0122,-0.20318 -0.20269,-0.37897 -0.40625,-0.37488 h -3.1875 c -0.0413,-0.007 -0.0837,-0.007 -0.125,0 z"
       id="path2" />
    <path
       inkscape:connector-curvature="0"
       d="m 113.84375,180.00525 c -0.4813,0.0874 -0.85238,0.53322 -0.84375,0.99967 v 13.99541 c 6e-5,0.52341 0.51276,0.99962 1.0625,0.99967 h 11.875 c 0.54975,-5e-5 1.06245,-0.47626 1.0625,-0.99967 V 187.5 c 0.006,-0.26397 -0.1196,-0.61972 -0.31245,-0.80945 l -6.40625,-6.40414 c -0.19927,-0.18364 -0.47275,-0.28728 -0.75,-0.28116 h -5.46875 c -0.0654,-0.006 -0.15331,-0.006 -0.21875,0 z M 114.25,181.25 h 5.25 l 6.25,6.25 v 7.25 h -11.5 z"
       id="path4" />
  </g>
  <g
     id="g827"
     style="fill:#444444"
     transform="matrix(0.50084746,0,0,0.50084746,2.4907071,3.7093225)">
    <path
       id="path821"
       d="M 10,3.7207031 A 7.1428571,7.1428571 0 0 0 3,10.857422 7.1428571,7.1428571 0 0 0 10.142578,18 7.1428571,7.1428571 0 0 0 15.042969,16.042969 L 10,11 Z"
       inkscape:connector-curvature="0" />
    <path
       id="path823"
       d="M 16.363962,17.363962 10,11 16.363962,4.63604 c 3.514718,3.5147176 3.514717,9.213204 0,12.727922 z"
       inkscape:connector-curvature="0"
       style="opacity:0.3" />
    <path
       id="path825"
       d="m 10,3 v 8 L 15.65625,5.34375 C 14.208536,3.896035 12.20914,3 10,3 Z"
       inkscape:connector-curvature="0"
       style="opacity:0.6" />
  </g>
</svg>
