<?xml version="1.0" encoding="UTF-8" standalone="no"?>
<svg
   height="16"
   width="16"
   version="1.1"
   id="svg4"
   sodipodi:docname="applications-development-symbolic.svg"
   inkscape:version="1.1.2 (0a00cf5339, 2022-02-04)"
   xmlns:inkscape="http://www.inkscape.org/namespaces/inkscape"
   xmlns:sodipodi="http://sodipodi.sourceforge.net/DTD/sodipodi-0.dtd"
   xmlns="http://www.w3.org/2000/svg"
   xmlns:svg="http://www.w3.org/2000/svg">
  <defs
     id="defs8" />
  <sodipodi:namedview
     id="namedview6"
     pagecolor="#ffffff"
     bordercolor="#666666"
     borderopacity="1.0"
     inkscape:pageshadow="2"
     inkscape:pageopacity="0.0"
     inkscape:pagecheckerboard="0"
     showgrid="false"
     inkscape:zoom="13.640625"
     inkscape:cx="17.484536"
     inkscape:cy="28.517755"
     inkscape:window-width="2560"
     inkscape:window-height="1363"
     inkscape:window-x="0"
     inkscape:window-y="40"
     inkscape:window-maximized="1"
     inkscape:current-layer="brackets" />
  <g
     id="brackets"
     transform="matrix(0.41043125,0,0,0.41043125,-12.531169,2.0083142)">
    <path
       d="m 35.775358,20.438356 q 0,-1.894531 -1.289062,-2.695312 -1.269532,-0.800781 -3.710938,-0.800781 v -4.667969 q 1.210938,0 2.148438,-0.175781 0.957031,-0.195313 1.601562,-0.605469 0.644531,-0.429688 0.957031,-1.09375 0.332032,-0.6640626 0.292969,-1.6015626 V 2.5867939 q 0,-1.4453125 0.371094,-2.4609375 0.371094,-1.03515625 1.328125,-1.6796875 0.976562,-0.6640625 2.636719,-0.9765625 1.660156,-0.3125 4.21875,-0.3125 v 4.3945312 q -0.78125,0.019531 -1.425782,0.1367188 -0.625,0.1171875 -1.074218,0.4296875 -0.429688,0.2929687 -0.664063,0.8203125 -0.234375,0.5273437 -0.234375,1.3671875 v 5.8398441 q -0.117187,3.652343 -4.570312,4.335937 V 14.7157 q 2.246093,0.332031 3.4375,1.40625 1.191406,1.074219 1.132812,2.910156 v 5.839844 q 0,0.839844 0.234375,1.367188 0.234375,0.527343 0.664063,0.820312 0.449218,0.3125 1.074218,0.429688 0.644532,0.117187 1.425782,0.136718 v 4.414063 q -2.558594,0 -4.21875,-0.3125 -1.660157,-0.3125 -2.636719,-0.976563 -0.957031,-0.644531 -1.328125,-1.679687 -0.371094,-1.035156 -0.371094,-2.480469 z"
       id="path94598"
       style="fill:#444444;fill-opacity:1" />
    <path
       d="m 64.271452,26.5907 q 0,1.445313 -0.371094,2.480469 -0.371094,1.035156 -1.347656,1.679687 -0.957031,0.664063 -2.617188,0.976563 -1.660156,0.3125 -4.21875,0.3125 v -4.414063 q 0.78125,-0.01953 1.40625,-0.136718 0.625,-0.117188 1.054688,-0.429688 0.449219,-0.292969 0.683594,-0.820312 0.253906,-0.527344 0.253906,-1.367188 v -5.839844 q -0.05859,-1.835937 1.132812,-2.910156 1.191407,-1.074219 3.417969,-1.40625 V 14.481325 Q 59.232389,13.797731 59.115202,10.145388 V 4.3055439 q 0,-0.8398438 -0.253906,-1.3671875 -0.234375,-0.5273438 -0.683594,-0.8203125 -0.429688,-0.3125 -1.054688,-0.4296875 -0.625,-0.1171875 -1.40625,-0.1367188 v -4.3945312 q 2.558594,0 4.21875,0.3125 1.660157,0.3125 2.617188,0.9765625 0.976562,0.64453125 1.347656,1.6796875 0.371094,1.015625 0.371094,2.4609375 v 6.2109375 q -0.01953,0.9375 0.292969,1.6015626 0.3125,0.664062 0.957031,1.09375 0.644531,0.410156 1.582031,0.605469 0.957031,0.175781 2.167969,0.175781 v 4.667969 q -2.441406,0 -3.730469,0.800781 -1.269531,0.800781 -1.269531,2.695312 z"
       id="path94600"
       style="fill:#444444;fill-opacity:1" />
  </g>
</svg>
