<?xml version="1.0" encoding="UTF-8" standalone="no"?>
<!-- Created with Inkscape (http://www.inkscape.org/) -->

<svg
   width="66mm"
   height="66mm"
   viewBox="0 0 66 66"
   version="1.1"
   id="svg8"
   inkscape:version="1.2.1 (9c6d41e410, 2022-07-14)"
   sodipodi:docname="menu-arcmenu-symbolic.svg"
   xmlns:inkscape="http://www.inkscape.org/namespaces/inkscape"
   xmlns:sodipodi="http://sodipodi.sourceforge.net/DTD/sodipodi-0.dtd"
   xmlns="http://www.w3.org/2000/svg"
   xmlns:svg="http://www.w3.org/2000/svg"
   xmlns:rdf="http://www.w3.org/1999/02/22-rdf-syntax-ns#"
   xmlns:cc="http://creativecommons.org/ns#"
   xmlns:dc="http://purl.org/dc/elements/1.1/">
  <defs
     id="defs2" />
  <sodipodi:namedview
     id="base"
     pagecolor="#ffffff"
     bordercolor="#666666"
     borderopacity="1.0"
     inkscape:pageopacity="0.0"
     inkscape:pageshadow="2"
     inkscape:zoom="1.979899"
     inkscape:cx="-74.246212"
     inkscape:cy="120.20815"
     inkscape:document-units="mm"
     inkscape:current-layer="layer1"
     showgrid="false"
     inkscape:window-width="2560"
     inkscape:window-height="1363"
     inkscape:window-x="0"
     inkscape:window-y="40"
     inkscape:window-maximized="1"
     inkscape:showpageshadow="2"
     inkscape:pagecheckerboard="0"
     inkscape:deskcolor="#d1d1d1" />
  <metadata
     id="metadata5">
    <rdf:RDF>
      <cc:Work
         rdf:about="">
        <dc:format>image/svg+xml</dc:format>
        <dc:type
           rdf:resource="http://purl.org/dc/dcmitype/StillImage" />
        <dc:title />
      </cc:Work>
    </rdf:RDF>
  </metadata>
  <g
     inkscape:label="Layer 1"
     inkscape:groupmode="layer"
     id="layer1"
     transform="translate(0,-231)">
    <g
       id="g906"
       transform="matrix(0.99918043,0,0,0.99918043,0.02704581,0.21636148)">
      <g
         style="fill-rule:nonzero"
         id="rect33674"
         transform="translate(-0.18945245,0.09385592)" />
      <g
         style="fill-rule:nonzero"
         id="rect33676"
         transform="translate(-0.18945245,0.09385592)" />
      <g
         style="fill-rule:nonzero"
         id="rect33678"
         transform="translate(-0.18945245,0.09385592)" />
      <g
         style="fill-rule:nonzero"
         id="rect33680"
         transform="translate(-0.18945245,0.09385592)" />
      <g
         style="fill-rule:nonzero"
         id="rect33682"
         transform="translate(-0.18945245,0.09385592)" />
      <g
         style="fill-rule:nonzero"
         id="rect33684"
         transform="translate(-0.18945245,0.09385592)" />
      <g
         style="fill-rule:nonzero"
         id="rect33686"
         transform="translate(-0.18945245,0.09385592)" />
      <g
         style="fill-rule:nonzero"
         id="rect33688"
         transform="translate(-0.18945245,0.09385592)" />
      <path
         d="m 14.406251,238.9795 a 0.13230472,0.13230472 0 0 0 -0.132813,0.13086 v 49.77929 a 0.13230472,0.13230472 0 0 0 0.132813,0.13086 h 37.187501 a 0.13230472,0.13230472 0 0 0 0.13281,-0.13086 v -49.77929 a 0.13230472,0.13230472 0 0 0 -0.13281,-0.13086 z m 0.132812,0.26366 h 36.923829 v 49.51368 H 14.539063 Z"
         style="color:#000000;stroke-linejoin:round"
         id="rect30567"
         inkscape:connector-curvature="0" />
      <g
         id="path30569"
         transform="translate(13.804687,-0.655375)">
        <path
           style="color:#000000;fill:#000000;stroke-width:0.264583px"
           d="m 22.785224,239.76578 0.233152,49.6615"
           id="path289" />
        <path
           style="color:#000000;fill:#000000"
           d="m 22.652344,239.76562 0.234375,49.66211 0.263672,-0.002 -0.232422,-49.66016 z"
           id="path291" />
      </g>
      <path
         id="rect30571"
         d="m 36.589844,239.04589 a 0.06584944,0.06584944 0 0 0 -0.06445,0.0645 v 5.36133 a 0.06584944,0.06584944 0 0 0 0.06445,0.0664 h 15.003908 a 0.06584944,0.06584944 0 0 0 0.06641,-0.0664 v -5.36133 a 0.06584944,0.06584944 0 0 0 -0.06641,-0.0645 z m 0.06641,0.13087 H 51.5293 v 5.23046 H 36.656251 Z"
         style="color:#000000;stroke-linejoin:round"
         inkscape:connector-curvature="0" />
      <g
         id="path30636"
         transform="translate(13.615235,-0.56151908)">
        <path
           id="path1693"
           d="m 2.5642889,287.23408 17.9535261,0.0511"
           style="color:#000000;stroke-width:0.265"
           inkscape:connector-curvature="0" />
        <path
           id="path1695"
           d="m 2.5644531,287.10156 v 0.26563 l 17.9531249,0.0508 v -0.26563 z"
           style="color:#000000"
           inkscape:connector-curvature="0" />
      </g>
      <path
         sodipodi:nodetypes="sccccccccccccccccs"
         id="path1135"
         d="m 39.644885,242.24044 c -0.105885,0.15295 -0.221133,0.2855 -0.331,0.39878 h 4.23e-4 c -0.201191,0.19869 -0.471725,0.43593 -0.471725,0.43593 0,0 -0.286738,-0.23304 -0.473443,-0.43563 h 4.24e-4 c -0.109732,-0.11314 -0.224904,-0.24548 -0.330703,-0.39818 -0.0047,0.002 -0.0096,0.003 -0.01427,0.005 -0.254885,0.0966 -0.479955,0.22506 -0.675228,0.3854 v 0.75161 h 1.056448 0.0013 0.869014 1.057793 v -0.75161 c -0.195274,-0.16033 -0.41926,-0.28879 -0.672088,-0.3854 -0.0056,-0.002 -0.0113,-0.004 -0.01689,-0.006 z"
         style="-inkscape-font-specification:Ubuntu;stroke-width:0.0382565"
         inkscape:connector-curvature="0" />
      <path
         sodipodi:nodetypes="ccsscccccccssssscc"
         style="-inkscape-font-specification:Ubuntu;stroke-width:0.0382565"
         d="m 38.841489,240.4001 c -0.236253,2e-5 -0.464693,0.0997 -0.631731,0.27553 -0.167066,0.17587 -0.261647,0.41633 -0.261647,0.66497 v 7.2e-4 c 4.24e-4,0.0957 0.009,0.2059 0.05411,0.31765 0.117651,0.29132 0.294046,0.51755 0.455134,0.69238 h -2.91e-4 c 0.04448,0.0508 0.09519,0.10242 0.145732,0.15204 h 0.471501 c 0.05118,-0.05 0.103473,-0.10194 0.151936,-0.15234 h -4.23e-4 c 0.161037,-0.1748 0.337376,-0.40087 0.454984,-0.69209 0.04512,-0.11174 0.05375,-0.22189 0.05411,-0.31765 v -7.2e-4 c 0,-0.24869 -0.09468,-0.48912 -0.261721,-0.66497 -0.167028,-0.17582 -0.395412,-0.27551 -0.631665,-0.27553 h -7.7e-5 z"
         id="path1137"
         inkscape:connector-curvature="0" />
      <path
         sodipodi:nodetypes="ccccccccccccccccccccccccccccccccccccccccccccccccccccccccccccccccccccccccccccccccccccccccccccccccccccccccccccccccccccccccccccccccccccccccccccccccccccccccccccccccccccccccccccccccccccccccccccccac"
         inkscape:connector-curvature="0"
         d="m 20.638672,250.85839 -0.002,0.79297 3.96875,0.0156 0.002,-0.79297 z m 5.556641,0.0215 -0.002,0.79297 4.761719,0.0195 0.0039,-0.79297 z m 6.34961,0.0254 -0.002,0.79297 1.033204,0.004 0.002,-0.79297 z m -11.851563,4.84765 -0.0039,0.79494 3.96875,0.0156 0.0039,-0.79297 z m 5.556641,0.0234 -0.0039,0.79298 4.761719,0.0195 0.0039,-0.79491 z m 6.349609,0.0254 -0.0039,0.79297 1.033203,0.004 0.0039,-0.79298 z m -11.84375,4.67774 -0.0039,0.79492 3.96875,0.0156 0.0039,-0.79491 z m 5.556641,0.0215 -0.0039,0.79491 4.763672,0.0195 0.002,-0.79492 z m 6.349609,0.0254 -0.0039,0.79492 1.033203,0.004 0.0039,-0.79492 z m -11.789063,5.08203 -0.0039,0.79492 3.96875,0.0156 0.0039,-0.79492 z m 5.556641,0.0234 -0.0039,0.79297 4.761719,0.0195 0.0039,-0.79492 z m 6.349609,0.0254 -0.0039,0.79297 1.033203,0.004 0.0039,-0.79295 z m -11.968749,4.43555 -0.0039,0.79297 3.968749,0.0156 0.0039,-0.79297 z m 5.554687,0.0215 -0.002,0.79492 4.761719,0.0176 0.0039,-0.79297 z m 6.351562,0.0254 -0.0039,0.79492 1.033203,0.004 0.002,-0.79493 z m -11.791015,4.33008 -0.002,0.79297 3.96875,0.0156 0.002,-0.79296 z m 5.556641,0.0215 -0.0039,0.79297 4.763672,0.0195 0.002,-0.79296 z m 6.349609,0.0254 -0.002,0.79297 1.03125,0.004 0.0039,-0.79297 z m -11.900391,4.43555 -0.0039,0.79492 3.96875,0.0156 0.0039,-0.79492 z m 5.554688,0.0215 -0.002,0.79492 4.761718,0.0195 0.0039,-0.79492 z m 6.351562,0.0254 -0.0039,0.79492 1.033203,0.004 0.002,-0.79297 z m -11.90625,-32.91213 -0.0039,0.79297 3.96875,0.0176 0.0039,-0.79492 z m 5.554688,0.0215 -0.002,0.79492 4.761718,0.0195 0.0039,-0.79493 z m 6.351562,0.0254 -0.0039,0.79492 1.033203,0.004 0.002,-0.79492 z m -17.417969,21.65227 c -0.06777,5.4e-4 -0.12261,0.0553 -0.123046,0.12304 v 3.39063 c 4.31e-4,0.0678 0.05527,0.12262 0.123046,0.12305 h 3.082032 c 0.06778,-5.3e-4 0.122615,-0.0553 0.123047,-0.12305 v -3.39063 c -4.5e-4,-0.0678 -0.05527,-0.12261 -0.123047,-0.12304 z m 0,4.0625 c -0.06854,5.4e-4 -0.12369,0.0565 -0.123046,0.125 v 3.38867 c 4.31e-4,0.0678 0.05527,0.12262 0.123046,0.12305 h 3.082032 c 0.06778,-5.3e-4 0.122615,-0.0553 0.123047,-0.12305 v -3.38867 c 6.35e-4,-0.0685 -0.05451,-0.12455 -0.123047,-0.125 z m 0,4.3789 c -0.06778,5.4e-4 -0.122615,0.0553 -0.123046,0.12305 v 3.39062 c 4.31e-4,0.0678 0.05527,0.12262 0.123046,0.12305 h 3.082032 c 0.06778,-5.3e-4 0.122615,-0.0553 0.123047,-0.12305 v -3.39062 c -4.24e-4,-0.0678 -0.05527,-0.12262 -0.123047,-0.12305 z m 0,-26.12109 c -0.06854,4.5e-4 -0.12369,0.0565 -0.123046,0.125 v 3.38867 c -6.43e-4,0.0685 0.05451,0.12456 0.123046,0.125 h 3.082032 c 0.06854,-4.5e-4 0.12369,-0.0565 0.123047,-0.125 v -3.38867 c 6.35e-4,-0.0685 -0.05451,-0.12456 -0.123047,-0.125 z m 0,4.51367 c -0.06778,4.2e-4 -0.122615,0.0553 -0.123046,0.12305 v 3.39062 c 4.31e-4,0.0678 0.05527,0.12262 0.123046,0.12305 h 3.082032 c 0.06778,-4.2e-4 0.122615,-0.0553 0.123047,-0.12305 v -3.39062 c -4.24e-4,-0.0678 -0.05527,-0.12262 -0.123047,-0.12305 z m 0,4.43555 c -0.06854,4.5e-4 -0.12369,0.0565 -0.123046,0.125 v 3.38867 c 4.31e-4,0.0678 0.05527,0.12262 0.123046,0.12305 h 3.082032 c 0.06778,-4.2e-4 0.122615,-0.0553 0.123047,-0.12305 v -3.38867 c 6.35e-4,-0.0685 -0.05451,-0.12456 -0.123047,-0.125 z m 0,4.40429 c -0.06778,4.2e-4 -0.122615,0.0553 -0.123046,0.12305 v 3.39063 c 4.36e-4,0.0678 0.05527,0.12261 0.123046,0.12304 h 3.082032 c 0.06777,-5.3e-4 0.12261,-0.0553 0.123047,-0.12304 V 263.583 c -4.24e-4,-0.0678 -0.05527,-0.12262 -0.123047,-0.12305 z m 0,-17.94336 c -0.06854,4.5e-4 -0.12369,0.0565 -0.123046,0.125 v 3.38868 c -6.43e-4,0.0685 0.05451,0.12456 0.123046,0.125 h 3.082032 c 0.06854,-4.5e-4 0.12369,-0.0565 0.123047,-0.125 v -3.38868 c 6.35e-4,-0.0685 -0.05451,-0.12456 -0.123047,-0.125 z"
         style="color:#000000;stroke-dasharray:4.7625, 1.5875;stroke-dashoffset:0.79375"
         id="path36027" />
      <g
         id="path36029"
         transform="translate(13.615235,-0.56151908)">
        <path
           id="path1675"
           d="m 23.198848,281.98804 14.688278,0.0513"
           style="color:#000000;stroke-width:0.240218"
           inkscape:connector-curvature="0" />
        <path
           id="path1677"
           d="m 23.199219,281.86719 v 0.24023 l 14.6875,0.0527 v -0.24024 z"
           style="color:#000000"
           inkscape:connector-curvature="0" />
      </g>
      <g
         id="path36031"
         transform="translate(13.615235,-0.56151908)">
        <path
           id="path1657"
           d="m 23.315442,267.11203 14.571665,0.0513"
           style="color:#000000;stroke-width:0.239282"
           inkscape:connector-curvature="0" />
        <path
           id="path1659"
           d="m 23.316406,266.99219 -0.002,0.24023 14.572266,0.0508 v -0.24023 z"
           style="color:#000000"
           inkscape:connector-curvature="0" />
      </g>
      <path
         id="path1220"
         d="m 38.685765,257.11444 c 0.262137,-8.2e-4 0.462052,0.0446 0.462048,0.0446 v 0.23838 h 8.73e-4 v 1.12468 c 0,10e-4 5e-6,0.002 0,0.004 0,0.0143 -2.59e-4,0.0284 -8.73e-4,0.042 -1.2e-4,0.002 1.21e-4,0.004 0,0.005 -6.08e-4,0.0117 -0.0014,0.0231 -0.0025,0.0343 -0.007,0.0798 -0.02502,0.1473 -0.05711,0.20108 -2.4e-5,5e-5 -2.4e-5,7e-5 -7.3e-5,1.7e-4 -0.0023,0.004 -0.0048,0.008 -0.0072,0.0115 -0.0025,0.004 -0.005,0.007 -0.0076,0.0111 -0.05335,0.0732 -0.147301,0.10969 -0.276878,0.10969 -0.231033,0 -0.328422,-0.16219 -0.328422,-0.3052 0,-0.007 2.91e-4,-0.0143 7.41e-4,-0.0219 0.0067,-0.11772 0.0691,-0.28237 0.293343,-0.28237 h 5.55e-4 3.18e-4 c 0.0055,0 0.01088,10e-5 0.01623,3.7e-4 0.03338,10e-4 0.06383,0.007 0.09219,0.0151 5.29e-4,1.7e-4 0.0011,2.5e-4 0.0016,4e-4 0.0036,0.001 0.0071,0.002 0.01066,0.003 0.0015,5e-4 0.003,10e-4 0.0045,0.002 0.0025,8.7e-4 0.005,0.002 0.0076,0.003 0.0025,9.3e-4 0.0051,0.002 0.0076,0.003 0.0012,4.8e-4 0.0024,9.5e-4 0.0037,10e-4 0.02954,0.0119 0.05702,0.0271 0.08328,0.0442 v -0.76812 c 0,0 -0.571846,-0.10587 -0.940958,0.12774 v 0.94465 c 0,0.0143 -1.85e-4,0.0285 -8.2e-4,0.0421 -9.3e-5,0.002 9.2e-5,0.004 0,0.005 -6.35e-4,0.0117 -0.0015,0.0231 -0.0026,0.0342 -0.008,0.0915 -0.03043,0.16675 -0.07198,0.22374 -0.05335,0.0732 -0.157638,0.10976 -0.287215,0.10976 -0.231031,0 -0.32834,-0.16219 -0.32834,-0.30519 0,-0.11794 0.05638,-0.3044 0.294934,-0.3044 0.08945,0 0.158152,0.0282 0.220724,0.0682 0.0042,0.003 0.0083,0.005 0.01241,0.008 v -1.24568 c 0.245962,-0.18158 0.53949,-0.22805 0.799536,-0.22884 v -7e-5 z"
         style="fill:#000000;stroke-width:0.0244862"
         inkscape:connector-curvature="0" />
      <path
         style="color:#000000;fill:#000000;stroke-width:0.134445"
         d="m 37.229511,263.66307 v 1.61333 h 0.134445 v -0.0448 c 0,-0.0124 0.01,-0.0224 0.02241,-0.0224 h 0.156852 c 0.01241,0 0.02241,0.01 0.02241,0.0224 v 0.0448 h 0.134445 v -1.61333 h -0.134445 v 0.0448 c 0,0.0124 -0.01,0.0224 -0.02241,0.0224 h -0.156852 c -0.01241,0 -0.02241,-0.01 -0.02241,-0.0224 v -0.0448 z m 0.156852,0.20167 h 0.156852 c 0.01241,0 0.02241,0.01 0.02241,0.0224 v 0.0896 c 0,0.0124 -0.01,0.0224 -0.02241,0.0224 h -0.156852 c -0.01241,0 -0.02241,-0.01 -0.02241,-0.0224 v -0.0896 c 0,-0.0124 0.01,-0.0224 0.02241,-0.0224 z m 0,0.26889 h 0.156852 c 0.01241,0 0.02241,0.01 0.02241,0.0224 v 0.0896 c 0,0.0124 -0.01,0.0224 -0.02241,0.0224 h -0.156852 c -0.01241,0 -0.02241,-0.01 -0.02241,-0.0224 v -0.0896 c 0,-0.0124 0.01,-0.0224 0.02241,-0.0224 z m 0,0.26888 h 0.156852 c 0.01241,0 0.02241,0.01 0.02241,0.0224 v 0.0896 c 0,0.0124 -0.01,0.0224 -0.02241,0.0224 h -0.156852 c -0.01241,0 -0.02241,-0.01 -0.02241,-0.0224 v -0.0896 c 0,-0.0124 0.01,-0.0224 0.02241,-0.0224 z m 0,0.26889 h 0.156852 c 0.01241,0 0.02241,0.01 0.02241,0.0224 v 0.0896 c 0,0.0124 -0.01,0.0224 -0.02241,0.0224 h -0.156852 c -0.01241,0 -0.02241,-0.01 -0.02241,-0.0224 v -0.0896 c 0,-0.0124 0.01,-0.0224 0.02241,-0.0224 z m 0,0.26889 h 0.156852 c 0.01241,0 0.02241,0.01 0.02241,0.0224 v 0.0896 c 0,0.0124 -0.01,0.0224 -0.02241,0.0224 h -0.156852 c -0.01241,0 -0.02241,-0.01 -0.02241,-0.0224 v -0.0896 c 0,-0.0124 0.01,-0.0224 0.02241,-0.0224 z"
         id="path1142"
         inkscape:connector-curvature="0" />
      <path
         style="color:#000000;fill:#000000;stroke-width:0.134445"
         d="m 38.64118,263.66307 v 1.61333 h 0.134445 v -0.0448 c 0,-0.0124 0.01,-0.0224 0.02241,-0.0224 h 0.156853 c 0.01241,0 0.02241,0.01 0.02241,0.0224 v 0.0448 h 0.134444 v -1.61333 h -0.134444 v 0.0448 c 0,0.0124 -0.01,0.0224 -0.02241,0.0224 h -0.156853 c -0.01241,0 -0.02241,-0.01 -0.02241,-0.0224 v -0.0448 z m 0.156852,0.20167 h 0.156852 c 0.01241,0 0.02241,0.01 0.02241,0.0224 v 0.0896 c 0,0.0124 -0.01,0.0224 -0.02241,0.0224 h -0.156852 c -0.01241,0 -0.02241,-0.01 -0.02241,-0.0224 v -0.0896 c 0,-0.0124 0.01,-0.0224 0.02241,-0.0224 z m 0,0.26889 h 0.156852 c 0.01241,0 0.02241,0.01 0.02241,0.0224 v 0.0896 c 0,0.0124 -0.01,0.0224 -0.02241,0.0224 h -0.156852 c -0.01241,0 -0.02241,-0.01 -0.02241,-0.0224 v -0.0896 c 0,-0.0124 0.01,-0.0224 0.02241,-0.0224 z m 0,0.26888 h 0.156852 c 0.01241,0 0.02241,0.01 0.02241,0.0224 v 0.0896 c 0,0.0124 -0.01,0.0224 -0.02241,0.0224 h -0.156852 c -0.01241,0 -0.02241,-0.01 -0.02241,-0.0224 v -0.0896 c 0,-0.0124 0.01,-0.0224 0.02241,-0.0224 z m 0,0.26889 h 0.156852 c 0.01241,0 0.02241,0.01 0.02241,0.0224 v 0.0896 c 0,0.0124 -0.01,0.0224 -0.02241,0.0224 h -0.156852 c -0.01241,0 -0.02241,-0.01 -0.02241,-0.0224 v -0.0896 c 0,-0.0124 0.01,-0.0224 0.02241,-0.0224 z m 0,0.26889 h 0.156852 c 0.01241,0 0.02241,0.01 0.02241,0.0224 v 0.0896 c 0,0.0124 -0.01,0.0224 -0.02241,0.0224 h -0.156852 c -0.01241,0 -0.02241,-0.01 -0.02241,-0.0224 v -0.0896 c 0,-0.0124 0.01,-0.0224 0.02241,-0.0224 z"
         id="path1144"
         inkscape:connector-curvature="0" />
      <path
         d="m 37.632844,263.66307 h 1.075557 v 0.13444 h -1.075557 z"
         style="color:#000000;fill:#000000;stroke-width:0.134445"
         id="rect1146"
         inkscape:connector-curvature="0" />
      <path
         d="m 37.632844,265.14197 h 1.075557 v 0.13443 h -1.075557 z"
         style="color:#000000;fill:#000000;stroke-width:0.134445"
         id="rect1148"
         inkscape:connector-curvature="0" />
      <path
         d="m 37.632844,264.40251 h 1.075557 v 0.13445 h -1.075557 z"
         style="color:#000000;fill:#000000;stroke-width:0.134445"
         id="rect1150"
         inkscape:connector-curvature="0" />
      <path
         sodipodi:nodetypes="ccccccccccccccc"
         style="color:#000000;fill:#000000;stroke-width:0.102102"
         d="m 37.315442,249.25327 v 1.99101 h 1.378381 0.07658 l 0.536038,-0.53605 v -0.0766 -1.37838 z m 0.153153,0.15317 h 1.684689 v 1.22522 h -0.459461 v 0.45946 h -1.225228 z"
         id="path1095"
         inkscape:connector-curvature="0" />
      <path
         sodipodi:nodetypes="ccccc"
         d="m 37.774902,249.71273 h 1.072075 v 0.15317 h -1.072075 z"
         style="color:#000000;fill:#000000;stroke-width:0.153154"
         id="rect1097"
         inkscape:connector-curvature="0" />
      <path
         sodipodi:nodetypes="ccccc"
         d="m 37.774902,250.01904 h 1.072075 v 0.15316 h -1.072075 z"
         style="color:#000000;fill:#000000;stroke-width:0.153154"
         id="rect1099"
         inkscape:connector-curvature="0" />
      <path
         sodipodi:nodetypes="ccccc"
         d="m 37.774902,250.32535 h 0.612614 v 0.15315 h -0.612614 z"
         style="color:#000000;fill:#000000;stroke-width:0.153154"
         id="rect1101"
         inkscape:connector-curvature="0" />
      <path
         id="path1092"
         d="m 39.132492,246.78132 v -0.31868 h -0.308305 z"
         style="color:#000000;fill:#000000;stroke-width:1.22523"
         inkscape:connector-curvature="0" />
      <path
         style="-inkscape-font-specification:Ubuntu;fill:#000000;stroke-width:0.0255256"
         d="m 38.310939,246.37747 -0.821553,0.77176 v 0.47301 0.2334 0.28941 h 0.269961 0.178159 0.373433 v -0.77176 c 0.0073,-0.003 0.01891,-0.006 0.03501,-0.0109 0.01756,-0.004 0.0363,-0.009 0.05679,-0.0117 0.02196,-0.004 0.04504,-0.008 0.06846,-0.0109 0.02342,-0.003 0.04651,-0.004 0.06846,-0.004 0.05416,0 0.09878,0.007 0.135369,0.0218 0.03659,0.0132 0.06596,0.0346 0.08791,0.0653 0.02196,0.0307 0.0379,0.0716 0.04668,0.12137 0.01025,0.0498 0.01478,0.10945 0.01478,0.17971 v 0.42089 h 0.03812 0.269961 v -0.28941 -0.70641 z"
         id="path1098"
         inkscape:connector-curvature="0" />
      <path
         style="color:#000000;-inkscape-font-specification:sans-serif;fill:#000000;stroke-width:0.153154"
         d="m 37.337686,247.34577 -0.114142,-0.11987 1.087395,-1.12398 1.087395,1.12398 -0.114142,0.11987 -0.973253,-0.93106 z"
         id="path1100"
         inkscape:connector-curvature="0" />
      <path
         id="path1188"
         d="m 38.692677,260.55782 c -0.128472,0 -0.232619,0.10415 -0.232619,0.23262 0,0.12847 0.104147,0.23262 0.232619,0.23262 0.128471,0 0.232619,-0.10415 0.232619,-0.23262 0,-0.12847 -0.104147,-0.23262 -0.232619,-0.23262 z"
         style="color:#000000;fill:#000000;stroke-width:0.146917"
         inkscape:connector-curvature="0" />
      <path
         id="path1190"
         d="m 38.024628,260.80268 -0.421588,0.80805 h 0.395625 0.623213 l -0.311611,-0.59725 -0.08783,0.16834 z"
         style="color:#000000;fill:#000000;stroke-width:0.146917"
         inkscape:connector-curvature="0" />
      <path
         id="path1192"
         d="m 37.309205,260.21499 v 1.90993 h 1.909924 v -1.90993 z m 0.146917,0.14692 h 1.61609 v 1.39572 h -1.61609 z"
         style="color:#000000;fill:#000000;stroke-width:0.0979445"
         inkscape:connector-curvature="0" />
      <path
         sodipodi:nodetypes="ccccc"
         id="path1077"
         d="m 37.531343,254.94644 v 0.46132 h 2.0298 v -0.46132 z"
         style="color:#000000;fill:#000000;stroke-width:0.369055"
         inkscape:connector-curvature="0" />
      <path
         id="path1079"
         d="m 37.870757,253.56248 c 0.08452,0.17449 0.17571,0.35125 0.274859,0.53057 0.129322,0.23113 0.263063,0.45418 0.400627,0.66883 4.76e-4,0 0.0012,-8.2e-4 0.0017,-8.2e-4 0.134685,-0.21446 0.266428,-0.43708 0.395629,-0.66799 0.09909,-0.1792 0.191196,-0.35616 0.277358,-0.53056 l -1.350139,-1e-5 z"
         style="color:#000000;fill:#000000;stroke-width:0.0922636"
         inkscape:connector-curvature="0" />
      <path
         id="path1081"
         d="m 38.269453,252.63946 v 1.07641 h 0.553581 v -1.07641 z"
         style="color:#000000;-inkscape-font-specification:Sans;fill:#000000;stroke-width:0.123018"
         inkscape:connector-curvature="0" />
      <path
         id="path36589"
         d="m 40.427735,246.9912 -0.002,0.26368 5.160156,0.0527 0.0039,-0.26367 z"
         style="color:#000000;stroke-dasharray:6.35, 6.35;stroke-dashoffset:0.413174"
         inkscape:connector-curvature="0" />
      <path
         id="path36591"
         d="m 40.427735,250.45409 -0.002,0.26563 6.01172,0.041 0.0021,-0.26563 z"
         style="color:#000000;stroke-dasharray:6.35, 6.35;stroke-dashoffset:0.338493"
         inkscape:connector-curvature="0" />
      <path
         id="path36593"
         d="m 40.427735,264.31153 -0.002,0.26366 4.785156,0.0527 0.0039,-0.26367 z"
         style="color:#000000;stroke-dasharray:6.35, 6.35;stroke-dashoffset:0.428613"
         inkscape:connector-curvature="0" />
      <path
         id="path36595"
         d="m 40.427735,260.84667 -0.002,0.26563 6.001954,0.041 0.0021,-0.26367 z"
         style="color:#000000;stroke-dasharray:6.35, 6.35;stroke-dashoffset:0.346671"
         inkscape:connector-curvature="0" />
      <path
         id="path36597"
         d="m 40.427735,257.38378 -0.002,0.26367 5.816407,0.0527 0.0021,-0.26367 z"
         style="color:#000000;stroke-dasharray:6.35, 6.35;stroke-dashoffset:0.389835"
         inkscape:connector-curvature="0" />
      <path
         id="path36599"
         d="m 40.427735,253.91894 -0.002,0.26367 6.009764,0.041 0.0021,-0.26368 z"
         style="color:#000000;stroke-dasharray:6.35, 6.35;stroke-dashoffset:0.340482"
         inkscape:connector-curvature="0" />
      <path
         d="m 40.427735,277.44238 -0.002,0.26563 6.01172,0.0391 0.0021,-0.26367 z m 0,-4.06446 -0.002,0.26563 5.816407,0.0527 0.0021,-0.26562 z m 0,-4.06445 -0.002,0.26562 6.001954,0.041 0.0021,-0.26367 z m -1.424215,7.6679 -0.625445,0.62544 0.11897,0.11897 0.625446,-0.62544 z m 0.160568,0.4138 c 0,0 0.119647,-0.30594 0.17154,-0.62623 -2.2e-5,-3e-5 -2.8e-5,-3e-5 -2.47e-4,-3e-5 -2.2e-5,-2e-5 -1.64e-4,-2e-5 -2.64e-4,0 -2.3e-5,-2e-5 -1.66e-4,-2e-5 -2.65e-4,0 -2.3e-5,-2e-5 -1.65e-4,-2e-5 -2.65e-4,0 -0.334729,0.0578 -0.625074,0.17209 -0.625074,0.17209 z m -1.379167,-0.21835 c -0.271933,0 -0.407899,-1e-5 -0.407899,0.31618 v 0.59134 c 0,0.31618 0.135966,0.31618 0.407899,0.31618 h 0.734219 c 0.271933,0 0.407899,0 0.407899,-0.31618 v -0.55496 l -0.16316,0.16316 v 0.32207 c 0,0.22276 -0.0798,0.22275 -0.295514,0.22275 h -0.632669 c -0.215716,0 -0.295514,10e-6 -0.295514,-0.22275 v -0.45188 c 0,-0.22277 0.0798,-0.22275 0.295514,-0.22275 h 0.575627 l 0.163159,-0.16316 h -9.52e-4 z m 0.32632,-0.73422 c -0.271933,0 -0.4079,0 -0.4079,0.31618 v 0.33646 h 0.16316 v -0.26673 c 0,-0.22276 0.0798,-0.22275 0.295515,-0.22275 h 1.040567 c 0.215717,0 0.295515,-10e-6 0.295515,0.22275 v 0.85978 c 0,0.22277 -0.0798,0.22275 -0.295515,0.22275 h -0.193964 v 0.16316 h 0.244739 c 0.271933,0 0.4079,0 0.4079,-0.31617 v -0.99925 c 0,-0.31618 -0.135967,-0.31618 -0.4079,-0.31618 z m 0.187489,-3.75742 -0.0071,0.0152 c -0.06536,0.13846 -0.127503,0.28065 -0.189122,0.42283 -0.0616,0.14217 -0.125679,0.29523 -0.189124,0.4523 -0.01768,0.0451 -0.03566,0.0921 -0.05352,0.13829 h 0.402352 c 0.03261,-0.0861 0.06468,-0.16966 0.09454,-0.24805 0.04601,-0.1168 0.08691,-0.21136 0.124,-0.29885 0.0355,0.0845 0.07141,0.17486 0.116857,0.29176 0.03116,0.0801 0.06295,0.16661 0.09548,0.25514 h 0.41123 c -0.01883,-0.0462 -0.03798,-0.0932 -0.0562,-0.13829 -0.06161,-0.15716 -0.119444,-0.31002 -0.181087,-0.4523 -0.06162,-0.14218 -0.12466,-0.28439 -0.190016,-0.42283 l -0.0071,-0.0152 z m -0.669098,1.1151 c -0.126521,0 -0.228357,0.10188 -0.228357,0.2284 0,0.12652 0.101836,0.22836 0.228357,0.22836 h 1.71287 c 0.126521,0 0.228357,-0.10184 0.228357,-0.22836 0,-0.12652 -0.101836,-0.2284 -0.228357,-0.2284 z m 0,0.11418 h 0.999183 c 0.06326,0 0.114178,0.051 0.114178,0.11422 0,0.0633 -0.05092,0.11418 -0.114178,0.11418 h -0.999183 c -0.06326,0 -0.114178,-0.0509 -0.114178,-0.11418 0,-0.0633 0.05092,-0.11422 0.114178,-0.11422 z m -0.0035,0.42913 c -0.03421,0.0972 -0.06938,0.19832 -0.106193,0.3033 l -0.01428,0.0366 h 0.421994 l 0.08739,-0.24086 c 0.01198,-0.0328 0.02427,-0.0658 0.03571,-0.099 h -0.4211 c -0.0012,0 -0.0023,10e-6 -0.0035,0 z m 1.278329,0 c 0.01131,0.0336 0.02274,0.0667 0.03482,0.099 0.02785,0.0744 0.0543,0.15029 0.0803,0.22658 l 0.0062,0.0143 h 0.02232 0.422836 l -0.01513,-0.0366 c -0.03687,-0.10514 -0.07328,-0.20618 -0.108871,-0.3033 -0.0015,2e-5 -0.0029,0 -0.0044,0 z m -0.956736,-5.52028 -0.297903,0.25326 0.268445,0.31992 0.299517,-0.25133 -0.270052,-0.32183 z m -0.517141,0.62826 -0.06542,0.38549 0.411281,0.0725 0.06789,-0.38505 -0.413741,-0.0729 z m 0.0077,0.81369 0.197674,0.33735 0.361673,-0.20881 -0.195496,-0.33861 -0.363838,0.21006 z m 0.528911,0.61838 0.368275,0.13136 0.142835,-0.39244 -0.367413,-0.13372 -0.143689,0.39478 z m 0.802656,0.13372 0.366557,-0.13608 -0.142839,-0.39244 -0.367411,0.13372 0.143692,0.39479 z m 0.700831,-0.41349 0.193322,-0.33987 -0.361676,-0.20881 -0.195495,0.33861 0.363839,0.21006 z m 0.271078,-0.76724 -0.07037,-0.38462 -0.411282,0.0725 0.0679,0.38505 0.413742,-0.0729 z m -0.285516,-0.76199 -0.301134,-0.2494 -0.268444,0.31992 0.299518,0.25133 0.270051,-0.32184 z m -0.708514,-0.42812 -0.390993,0.0584 v 0.3897 h 0.390993 v -0.44805 z m -0.448884,0.25679 c -0.242168,0.0647 -0.459325,0.22203 -0.59375,0.45508 -0.268851,0.4661 -0.106885,1.06649 0.359375,1.33594 0.46626,0.26945 1.067086,0.10868 1.335937,-0.35742 0.268851,-0.4661 0.106885,-1.06649 -0.359375,-1.33594 -0.23313,-0.13472 -0.500019,-0.16234 -0.742187,-0.0977 z m 0.574218,0.38868 c 0.309697,0.17897 0.414534,0.56995 0.236329,0.8789 -0.178206,0.30895 -0.56921,0.41335 -0.878907,0.23438 -0.309696,-0.17897 -0.414533,-0.56996 -0.236328,-0.87891 0.178205,-0.30895 0.56921,-0.41334 0.878906,-0.23437 z"
         style="color:#000000;stroke-dasharray:6.35, 6.35;stroke-dashoffset:0.338493"
         id="path36894"
         inkscape:connector-curvature="0" />
      <path
         id="path534"
         d="m 39.695332,285.12988 c -0.777259,0 -1.410156,0.63291 -1.410156,1.41017 0,0.77726 0.632897,1.41016 1.410156,1.41016 0.777259,0 1.410156,-0.6329 1.410156,-1.41016 0,-0.77726 -0.632897,-1.41017 -1.410156,-1.41017 z m 0,0.26563 c 0.634043,0 1.144531,0.51049 1.144531,1.14453 0,0.63404 -0.510488,1.14453 -1.144531,1.14453 -0.634043,0 -1.144531,-0.51049 -1.144531,-1.14453 0,-0.63404 0.510488,-1.14453 1.144531,-1.14453 z"
         style="color:#000000;font-style:normal;font-variant:normal;font-weight:normal;font-stretch:normal;font-size:medium;line-height:normal;font-family:sans-serif;font-variant-ligatures:normal;font-variant-position:normal;font-variant-caps:normal;font-variant-numeric:normal;font-variant-alternates:normal;font-feature-settings:normal;text-indent:0;text-align:start;text-decoration:none;text-decoration-line:none;text-decoration-style:solid;text-decoration-color:#000000;letter-spacing:normal;word-spacing:normal;text-transform:none;writing-mode:lr-tb;direction:ltr;text-orientation:mixed;dominant-baseline:auto;baseline-shift:baseline;text-anchor:start;white-space:normal;shape-padding:0;clip-rule:nonzero;display:inline;overflow:visible;visibility:visible;isolation:auto;mix-blend-mode:normal;color-interpolation:sRGB;color-interpolation-filters:linearRGB;solid-color:#000000;solid-opacity:1;fill:#000000;fill-opacity:1;fill-rule:nonzero;stroke:none;stroke-width:1;stroke-linecap:butt;stroke-linejoin:round;stroke-miterlimit:4;stroke-dasharray:none;stroke-dashoffset:0;stroke-opacity:1;color-rendering:auto;image-rendering:auto;shape-rendering:auto;text-rendering:auto;enable-background:accumulate"
         inkscape:connector-curvature="0" />
      <path
         id="path531"
         d="m 44.158223,285.12988 c -0.77726,0 -1.410157,0.63291 -1.410157,1.41017 0,0.77726 0.632897,1.41016 1.410157,1.41016 0.777259,0 1.410156,-0.6329 1.410156,-1.41016 0,-0.77726 -0.632897,-1.41017 -1.410156,-1.41017 z m 0,0.26563 c 0.634042,0 1.144531,0.51049 1.144531,1.14453 0,0.63404 -0.510489,1.14453 -1.144531,1.14453 -0.634043,0 -1.144532,-0.51049 -1.144532,-1.14453 0,-0.63404 0.510489,-1.14453 1.144532,-1.14453 z"
         style="color:#000000;font-style:normal;font-variant:normal;font-weight:normal;font-stretch:normal;font-size:medium;line-height:normal;font-family:sans-serif;font-variant-ligatures:normal;font-variant-position:normal;font-variant-caps:normal;font-variant-numeric:normal;font-variant-alternates:normal;font-feature-settings:normal;text-indent:0;text-align:start;text-decoration:none;text-decoration-line:none;text-decoration-style:solid;text-decoration-color:#000000;letter-spacing:normal;word-spacing:normal;text-transform:none;writing-mode:lr-tb;direction:ltr;text-orientation:mixed;dominant-baseline:auto;baseline-shift:baseline;text-anchor:start;white-space:normal;shape-padding:0;clip-rule:nonzero;display:inline;overflow:visible;visibility:visible;isolation:auto;mix-blend-mode:normal;color-interpolation:sRGB;color-interpolation-filters:linearRGB;solid-color:#000000;solid-opacity:1;fill:#000000;fill-opacity:1;fill-rule:nonzero;stroke:none;stroke-width:1;stroke-linecap:butt;stroke-linejoin:round;stroke-miterlimit:4;stroke-dasharray:none;stroke-dashoffset:0;stroke-opacity:1;color-rendering:auto;image-rendering:auto;shape-rendering:auto;text-rendering:auto;enable-background:accumulate"
         inkscape:connector-curvature="0" />
      <path
         id="path528"
         d="m 48.621113,285.12988 c -0.777259,0 -1.410156,0.63291 -1.410156,1.41017 0,0.77726 0.632897,1.41016 1.410156,1.41016 0.777259,0 1.410156,-0.6329 1.410156,-1.41016 0,-0.77726 -0.632897,-1.41017 -1.410156,-1.41017 z m 0,0.26563 c 0.634043,0 1.144531,0.51049 1.144531,1.14453 0,0.63404 -0.510488,1.14453 -1.144531,1.14453 -0.634043,0 -1.146484,-0.51049 -1.146484,-1.14453 0,-0.63404 0.512441,-1.14453 1.146484,-1.14453 z"
         style="color:#000000;font-style:normal;font-variant:normal;font-weight:normal;font-stretch:normal;font-size:medium;line-height:normal;font-family:sans-serif;font-variant-ligatures:normal;font-variant-position:normal;font-variant-caps:normal;font-variant-numeric:normal;font-variant-alternates:normal;font-feature-settings:normal;text-indent:0;text-align:start;text-decoration:none;text-decoration-line:none;text-decoration-style:solid;text-decoration-color:#000000;letter-spacing:normal;word-spacing:normal;text-transform:none;writing-mode:lr-tb;direction:ltr;text-orientation:mixed;dominant-baseline:auto;baseline-shift:baseline;text-anchor:start;white-space:normal;shape-padding:0;clip-rule:nonzero;display:inline;overflow:visible;visibility:visible;isolation:auto;mix-blend-mode:normal;color-interpolation:sRGB;color-interpolation-filters:linearRGB;solid-color:#000000;solid-opacity:1;fill:#000000;fill-opacity:1;fill-rule:nonzero;stroke:none;stroke-width:1;stroke-linecap:butt;stroke-linejoin:round;stroke-miterlimit:4;stroke-dasharray:none;stroke-dashoffset:0;stroke-opacity:1;color-rendering:auto;image-rendering:auto;shape-rendering:auto;text-rendering:auto;enable-background:accumulate"
         inkscape:connector-curvature="0" />
      <g
         transform="matrix(0.13457341,0,0,0.13457341,38.850004,285.6646)"
         style="fill:#000000;fill-opacity:1;stroke:none"
         id="use34459">
        <title
           id="title1064">Exit To App</title>
        <path
           id="path525"
           d="M 5.3366458,8.2470625 6.0854167,8.9958333 8.73125,6.35 6.0854167,3.7041667 5.3366458,4.4529375 6.7045417,5.8208333 H 1.5875 V 6.8791667 H 6.7045417 Z M 10.054167,1.5875 H 2.6458333 C 2.0611042,1.5875 1.5875,2.0611042 1.5875,2.6458333 V 4.7625 H 2.6458333 V 2.6458333 H 10.054167 V 10.054167 H 2.6458333 V 7.9375 H 1.5875 v 2.116667 c 0,0.584729 0.4736042,1.058333 1.0583333,1.058333 h 7.4083337 c 0.584729,0 1.058333,-0.473604 1.058333,-1.058333 V 2.6458333 C 11.1125,2.0611042 10.638896,1.5875 10.054167,1.5875 Z"
           inkscape:connector-curvature="0"
           style="fill:#000000;fill-opacity:1;stroke:none;stroke-width:0.264583" />
      </g>
      <g
         transform="matrix(0.14809567,0,0,0.14809567,43.217586,285.55615)"
         style="fill:#000000;fill-opacity:1;stroke:none"
         id="use34497">
        <title
           id="title1070">Lock Outline</title>
        <path
           id="path522"
           d="M 9.525,4.2333333 H 8.9958333 V 3.175 C 8.9958333,1.7145 7.8105,0.52916667 6.35,0.52916667 4.8895,0.52916667 3.7041667,1.7145 3.7041667,3.175 V 4.2333333 H 3.175 c -0.5847292,0 -1.0583333,0.4736042 -1.0583333,1.0583334 v 5.2916663 c 0,0.584729 0.4736041,1.058334 1.0583333,1.058334 h 6.35 c 0.584729,0 1.058333,-0.473605 1.058333,-1.058334 V 5.2916667 c 0,-0.5847292 -0.473604,-1.0583334 -1.058333,-1.0583334 z M 6.35,1.5345833 c 0.904875,0 1.6404167,0.7355417 1.6404167,1.6404167 V 4.2333333 H 4.7625 V 3.175 H 4.7095833 C 4.7095833,2.270125 5.445125,1.5345833 6.35,1.5345833 Z M 9.525,10.583333 H 3.175 V 5.2916667 h 6.35 z M 6.35,8.9958333 c 0.5847292,0 1.0583333,-0.4736041 1.0583333,-1.0583333 0,-0.5847292 -0.4736041,-1.0583333 -1.0583333,-1.0583333 -0.5847292,0 -1.0583333,0.4736041 -1.0583333,1.0583333 0,0.5847292 0.4736041,1.0583333 1.0583333,1.0583333 z"
           inkscape:connector-curvature="0"
           style="fill:#000000;fill-opacity:1;stroke:none;stroke-width:0.264583" />
      </g>
      <path
         id="path519"
         d="m 48.553493,285.69145 0.133951,-0.0223 v 0.73673 h -0.133951 z"
         style="color:#000000;display:inline;overflow:visible;visibility:visible;fill:#000000;fill-opacity:1;stroke:none;stroke-width:0.200927;marker:none;enable-background:accumulate"
         inkscape:connector-curvature="0" />
      <path
         id="path516"
         d="m 48.252034,285.90176 c -0.288496,0.16656 -0.429338,0.50701 -0.343119,0.82879 0.08622,0.32177 0.378491,0.54599 0.711616,0.54599 0.333126,0 0.625397,-0.22422 0.711616,-0.54599 0.08622,-0.32178 -0.05479,-0.66223 -0.343283,-0.82879 l -0.06707,0.11602 c 0.236551,0.13657 0.351683,0.41415 0.280988,0.67799 -0.0707,0.26384 -0.309101,0.44678 -0.582247,0.44678 -0.273145,0 -0.511551,-0.18294 -0.582246,-0.44678 -0.0707,-0.26384 0.04427,-0.54142 0.280823,-0.67799 z"
         style="color:#000000;font-style:normal;font-variant:normal;font-weight:normal;font-stretch:normal;font-size:medium;line-height:normal;font-family:sans-serif;font-variant-ligatures:normal;font-variant-position:normal;font-variant-caps:normal;font-variant-numeric:normal;font-variant-alternates:normal;font-feature-settings:normal;text-indent:0;text-align:start;text-decoration:none;text-decoration-line:none;text-decoration-style:solid;text-decoration-color:#000000;letter-spacing:normal;word-spacing:normal;text-transform:none;writing-mode:lr-tb;direction:ltr;text-orientation:mixed;dominant-baseline:auto;baseline-shift:baseline;text-anchor:start;white-space:normal;shape-padding:0;clip-rule:nonzero;display:inline;overflow:visible;visibility:visible;isolation:auto;mix-blend-mode:normal;color-interpolation:sRGB;color-interpolation-filters:linearRGB;solid-color:#000000;solid-opacity:1;fill:#000000;fill-opacity:1;fill-rule:nonzero;stroke:none;stroke-width:0.0843787;stroke-linecap:butt;stroke-linejoin:round;stroke-miterlimit:4;stroke-dasharray:none;stroke-dashoffset:0;stroke-opacity:1;marker:none;color-rendering:auto;image-rendering:auto;shape-rendering:auto;text-rendering:auto;enable-background:accumulate"
         inkscape:connector-curvature="0" />
    </g>
  </g>
</svg>
